<?xml version="1.0" encoding="utf-8"?>
<!-- Generator: Adobe Illustrator 21.0.0, SVG Export Plug-In . SVG Version: 6.00 Build 0)  -->
<svg version="1.1" id="Layer_1" xmlns="http://www.w3.org/2000/svg" xmlns:xlink="http://www.w3.org/1999/xlink" x="0px" y="0px"
	 viewBox="0 0 500 500" style="enable-background:new 0 0 500 500;" xml:space="preserve">
<style type="text/css">
	.st0{display:none;}
	.st1{fill:#F7931E;}
	.st2{font-family:'MinionPro-Regular';}
	.st3{font-size:35.4435px;}
	.st4{letter-spacing:3;}
	.st5{fill:#39B54A;}
</style>
<rect x="-13" y="-15" class="st0" width="528" height="523"/>
<text transform="matrix(1 0 0 1 186.8916 302.7119)" class="st1 st2 st3 st4">Foods Limited</text>
<g>
	<path class="st5" d="M47.2,257.4c0.7,5.4,2.9,10.3,5,15.1c2.2,4.8,4.9,9.3,7.9,14.1c-1.7-0.3-2.6-1.2-3.6-1.9
		c-8-6.3-14-14-16.8-23.9c-2.5-9.2-2.3-18.5,0.7-27.6c0.2-0.7,0.4-1.6,1.2-1.6c0.7-0.1,1,0.8,1.4,1.3c4.1,4.6,8.5,8.9,13.2,12.9
		c3.6,3,7.3,6,10.9,9.1c6.2,5.3,7.2,12.2,6.1,19.7c-0.3,2.1-0.8,4.3-1.5,6.3c-0.4,1.2-0.1,1.9,0.8,2.7c7.3,6.2,15.7,10.1,25.1,11.4
		c17.4,2.4,32.5-2.8,44.5-15.5c12.4-13.2,16.9-29.3,12.4-46.9c-4.9-19.1-17.3-31.9-36.5-37c-19-5.1-35.6,0.1-49.5,13.9
		c-7.5,7.5-11.9,16.7-13.7,27.2c-0.1,0.7,0.1,1.8-0.8,2.1c-0.7,0.2-1.2-0.7-1.7-1.2c-0.9-0.8-1.6-1.8-2.5-2.5
		c-2.4-1.8-2.7-3.8-1.9-6.7c4.3-14.3,12.5-25.7,25.2-33.6c17-10.7,35.3-12.6,53.8-5.2c21.5,8.7,34.2,25,37.1,48.2
		c3.3,26.9-11.8,52.1-36.8,62.1c-12.9,5.1-26.1,5.6-39.4,1.6c-9-2.7-16.6-7.6-23.6-13.7c-6.1-5.3-9.5-12.2-12.7-19.2
		C50,264.9,48.6,261.1,47.2,257.4z"/>
	<path class="st1" d="M110.4,268.2c-1.5-3.5-2.5-7.1-4.2-10.3c-2.1-4-4.7-7.7-7.7-11.1c-3.3-3.8-7.3-6.8-11.5-9.5
		c-1.6-1-1.7-1.9-0.6-3.5c5.5-8.1,13.3-11.6,22.7-10.2c8.9,1.4,15.8,7.1,18.3,16.3c0.1,0.5,0.3,1,0.5,1.5c1,3.4,0.3,5.3-2.4,7.4
		c-6,4.8-10.3,11-13.8,17.7C111.4,267.1,111.2,267.8,110.4,268.2z"/>
	<path class="st5" d="M109.6,280.6c-0.1,3.5-0.5,6.6-1.1,9.7c-0.3,1.5-1.1,2.2-2.6,2.1c-2.3-0.1-4.6-0.3-6.9-0.4
		c-1.3-0.1-1.7-0.6-1.3-2c2-8.4,1.5-16.6-2.1-24.5c-6-12.8-16-20.3-30-22.4c-2.2-0.3-4.3-0.5-6.5-0.3c-1,0.1-1.5-0.3-1.4-1.3
		c0.1-2.4,0.4-4.7,0.8-7c0.3-1.5,1.1-2.1,2.7-2.1c12.2,0,22.8,4.2,32,12.3C104.2,254.3,109.1,266.6,109.6,280.6z"/>
	<path class="st5" d="M153,244.4c0,0.3,0,0.7,0,1c-0.1,4.7-0.1,4.6-4.5,5.8c-14.2,4-23.5,13-27.5,27.3c-0.9,3.3-1.4,6.5-1.4,9.9
		c0,1.2-0.4,2-1.6,2.3c-1.9,0.4-3.7,0.7-5.6,1c-1.1,0.2-1.6-0.1-1.4-1.4c0.8-5.1,1.1-10.3,0.6-15.5c-0.4-4.1,1.9-7.5,3.8-10.8
		c7.7-13.1,19.1-21,34-23.9c3.4-0.6,3.6-0.4,3.7,3C153,243.7,153,244,153,244.4z"/>
	<path class="st5" d="M96.6,281.1c0.1,2.7-0.4,5.5-1.1,8.4c-0.3,1.2-0.9,1.6-2.1,1.3c-2.2-0.6-4.4-1.2-6.5-2.2
		c-1.1-0.5-1.5-1.1-1.2-2.3c1.4-6.2,0.4-12.1-2.6-17.7c-1.3-2.4-2.9-4.6-5-6.3c-2.1-1.8-3.9-3.8-5.4-6.1c-2.4-3.6-6.2-5.8-9.4-8.6
		c-0.3-0.3-0.7-0.5-0.9-0.7c-0.4-0.4-1.1-0.7-0.8-1.4c0.3-0.7,1.1-0.4,1.6-0.4c7.5,0.6,14.3,3.1,20.2,7.9
		C91.8,259.7,96.6,269.9,96.6,281.1z"/>
	<path class="st5" d="M121.8,286.7c0.8-15.9,11.5-29.2,26.7-33.3c3.6-1,3.8-0.8,2.9,2.9c-0.3,1.2-0.7,2.4-1,3.6
		c-0.7,2.9-2.4,4.7-5.2,6.2c-6.4,3.3-10.4,8.9-12.3,15.9c-0.4,1.3-1,2.3-2.1,2.9c-2.2,1.3-4.4,2.6-6.8,3.5
		C122.2,289.1,121.7,288.7,121.8,286.7z"/>
	<path class="st5" d="M84,281.6c-0.1,0.9-0.3,2.3-0.5,3.7c-0.2,1.3-0.9,1.5-1.9,0.8c-1.9-1.2-3.7-2.5-5.5-3.7
		c-0.9-0.6-1.1-1.3-0.7-2.4c1.5-4.6,1.9-9.3,1.2-14.2c-0.1-0.4-0.3-1,0.1-1.3c0.6-0.3,0.9,0.3,1.3,0.7C82,269.7,83.9,275,84,281.6z"
		/>
	<path class="st1" d="M127.5,208.4c-0.9,3.4-2.6,6.4-3.8,9.5c-0.3,0.8-0.7,1.5-1,2.3c-0.3,0.8-0.7,1.5-1.6,1.5
		c-0.9,0-1.8-0.4-2.3-1.3c-0.4-0.8,0.2-1.5,0.7-2.1c2.4-3,4.2-6.3,6.9-9.1C126.5,208.9,126.6,208.4,127.5,208.4z"/>
	<path class="st1" d="M84,208.6c1.3,0.5,1.6,1.6,2.2,2.4c1.9,2.3,3.7,4.7,5.4,7.2c0.8,1.1,1.4,2.3-0.4,3.2c-1.7,0.9-2.1-0.2-2.7-1.4
		c-1.4-3-3-5.9-4.2-9.1C84.1,210.2,83.7,209.6,84,208.6z"/>
	<path class="st1" d="M143.7,223.8c-0.5,1.5-1.6,1.9-2.3,2.5c-2.9,2.2-5.8,4.3-8.7,6.3c-1.4,1-1.8-0.3-2.4-1.1
		c-0.7-0.8-0.5-1.7,0.4-2.1C134.8,227.5,139.1,225.7,143.7,223.8z"/>
	<path class="st1" d="M105.7,202.7c0.2,2.5,1.4,4.7,1.2,7.2c-0.1,1.8,0.3,3.5,0.6,5.2c0.3,1.3-0.2,2.2-1.6,2.3
		c-1.5,0.1-2.3-0.5-2.2-2C104,211.1,104.5,206.9,105.7,202.7z"/>
	<path class="st1" d="M68,224.1c3.7,1.2,6.9,3,10.4,4.3c0.5,0.2,1,0.4,1.4,0.6c1.2,0.6,1.9,1.2,1,2.7c-0.9,1.4-1.7,1.3-2.8,0.5
		c-3.2-2.4-6.4-4.7-9.6-7C68.1,225,67.9,224.8,68,224.1z"/>
	<path class="st5" d="M136.3,280.4c0.1-3.7,5.6-10.5,9.8-12.1C145.9,270.9,139.1,279.3,136.3,280.4z"/>
</g>
<g>
	<path class="st5" d="M241,217.1c0,5.3-1.5,9.8-4.4,13.5c-2.9,3.7-7.4,6.4-13.6,8.2v0.2l22.5,31.2H229l-20.6-29.3h-9.5v29.3h-13.9
		v-75.8H208c3.8,0,7.4,0.2,10.7,0.7c3.3,0.4,6.1,1.1,8.4,2c4.5,1.7,7.9,4.2,10.3,7.6C239.8,207.9,241,212.1,241,217.1z M205.7,229.2
		c3.2,0,5.9-0.1,8.1-0.4c2.2-0.3,4.1-0.7,5.6-1.3c2.8-1.1,4.7-2.5,5.8-4.3c1.1-1.8,1.6-3.9,1.6-6.3c0-2-0.4-3.8-1.3-5.4
		c-0.8-1.6-2.3-2.8-4.3-3.7c-1.3-0.6-3-1-5-1.3c-2-0.3-4.5-0.4-7.4-0.4h-9.9v23.2H205.7z"/>
	<path class="st5" d="M271.7,258.5H309v11.6h-51.2v-75.8h49.1V206h-35.2v19.6h30.3v11.6h-30.3V258.5z"/>
	<path class="st5" d="M337.6,194.3v64.2H373v11.6h-49.3v-75.8H337.6z"/>
	<path class="st5" d="M452,232.2c0,5.8-0.8,11.1-2.5,15.9c-1.6,4.8-4,9-7.2,12.4c-3.2,3.5-7,6.2-11.6,8.1c-4.6,1.9-9.8,2.9-15.7,2.9
		c-5.9,0-11.1-1-15.7-2.9c-4.6-1.9-8.5-4.6-11.6-8.1c-3.2-3.5-5.6-7.6-7.2-12.4c-1.6-4.8-2.5-10.1-2.5-15.9s0.8-11.1,2.5-15.9
		c1.6-4.8,4-9,7.2-12.4c3.2-3.5,7-6.2,11.6-8.1c4.6-1.9,9.8-2.9,15.7-2.9c5.9,0,11.1,1,15.7,2.9c4.6,1.9,8.5,4.6,11.6,8.1
		c3.2,3.5,5.6,7.6,7.2,12.4C451.2,221.2,452,226.5,452,232.2z M437.7,232.2c0-4.6-0.6-8.6-1.7-12.1c-1.1-3.5-2.7-6.3-4.7-8.6
		c-2-2.3-4.4-4-7.1-5.2c-2.8-1.1-5.8-1.7-9.1-1.7c-3.3,0-6.3,0.6-9.1,1.7c-2.8,1.1-5.1,2.9-7.1,5.2c-2,2.3-3.6,5.2-4.7,8.6
		c-1.1,3.5-1.7,7.5-1.7,12.1c0,4.6,0.6,8.6,1.7,12.1c1.1,3.5,2.7,6.3,4.7,8.6c2,2.3,4.4,4,7.1,5.2c2.8,1.2,5.8,1.7,9.1,1.7
		c3.3,0,6.3-0.6,9.1-1.7c2.8-1.2,5.1-2.9,7.1-5.2c2-2.3,3.6-5.2,4.7-8.6C437.1,240.9,437.7,236.9,437.7,232.2z"/>
</g>
</svg>
